{
    "accessors" : [
        {
            "bufferView" : 0, 
            "componentType" : 5121, 
            "count" : 72, 
            "max" : [
                47
            ], 
            "min" : [
                0
            ], 
            "type" : "SCALAR"
        }, 
        {
            "bufferView" : 1, 
            "componentType" : 5126, 
            "count" : 48, 
            "max" : [
                368.83990478515625, 
                376.778564453125, 
                -3604.361328125
            ], 
            "min" : [
                -343.28656005859375, 
                310.3186340332031, 
                -3712.441162109375
            ], 
            "type" : "VEC3"
        }, 
        {
            "bufferView" : 2, 
            "componentType" : 5126, 
            "count" : 48, 
            "max" : [
                0.9489186406135559, 
                0.9986382126808167, 
                0.9640870690345764
            ], 
            "min" : [
                -0.9489185214042664, 
                -0.9986382126808167, 
                -0.9311649799346924
            ], 
            "type" : "VEC3"
        }, 
        {
            "bufferView" : 3, 
            "componentType" : 5126, 
            "count" : 48, 
            "max" : [
                0.0, 
                1.0
            ], 
            "min" : [
                0.0, 
                1.0
            ], 
            "type" : "VEC2"
        }, 
        {
            "bufferView" : 4, 
            "componentType" : 5123, 
            "count" : 48, 
            "max" : [
                0, 
                0, 
                0, 
                0
            ], 
            "min" : [
                0, 
                0, 
                0, 
                0
            ], 
            "type" : "VEC4"
        }, 
        {
            "bufferView" : 5, 
            "componentType" : 5126, 
            "count" : 48, 
            "max" : [
                0.0, 
                0.0, 
                0.0, 
                0.0
            ], 
            "min" : [
                0.0, 
                0.0, 
                0.0, 
                0.0
            ], 
            "type" : "VEC4"
        }, 
        {
            "bufferView" : 6, 
            "componentType" : 5123, 
            "count" : 48, 
            "max" : [
                0, 
                0, 
                0, 
                0
            ], 
            "min" : [
                0, 
                0, 
                0, 
                0
            ], 
            "type" : "VEC4"
        }, 
        {
            "bufferView" : 7, 
            "componentType" : 5126, 
            "count" : 48, 
            "max" : [
                0.0, 
                0.0, 
                0.0, 
                0.0
            ], 
            "min" : [
                0.0, 
                0.0, 
                0.0, 
                0.0
            ], 
            "type" : "VEC4"
        }, 
        {
            "bufferView" : 8, 
            "componentType" : 5123, 
            "count" : 48, 
            "max" : [
                0, 
                0, 
                0, 
                0
            ], 
            "min" : [
                0, 
                0, 
                0, 
                0
            ], 
            "type" : "VEC4"
        }, 
        {
            "bufferView" : 9, 
            "componentType" : 5126, 
            "count" : 48, 
            "max" : [
                0.0, 
                0.0, 
                0.0, 
                0.0
            ], 
            "min" : [
                0.0, 
                0.0, 
                0.0, 
                0.0
            ], 
            "type" : "VEC4"
        }, 
        {
            "bufferView" : 10, 
            "componentType" : 5123, 
            "count" : 2334, 
            "max" : [
                701
            ], 
            "min" : [
                0
            ], 
            "type" : "SCALAR"
        }, 
        {
            "bufferView" : 11, 
            "componentType" : 5126, 
            "count" : 702, 
            "max" : [
                1014.4647216796875, 
                740.10498046875, 
                -28.798099517822266
            ], 
            "min" : [
                -1014.4647216796875, 
                -1294.6480712890625, 
                -3859.42724609375
            ], 
            "type" : "VEC3"
        }, 
        {
            "bufferView" : 12, 
            "componentType" : 5126, 
            "count" : 702, 
            "max" : [
                1.0, 
                0.999267578125, 
                1.0
            ], 
            "min" : [
                -1.0, 
                -0.99969482421875, 
                -0.99969482421875
            ], 
            "type" : "VEC3"
        }, 
        {
            "bufferView" : 13, 
            "componentType" : 5126, 
            "count" : 702, 
            "max" : [
                1.011299967765808, 
                0.989500000141561
            ], 
            "min" : [
                0.011699999682605267, 
                0.004999995231628418
            ], 
            "type" : "VEC2"
        }, 
        {
            "bufferView" : 14, 
            "componentType" : 5123, 
            "count" : 702, 
            "max" : [
                0, 
                0, 
                0, 
                0
            ], 
            "min" : [
                0, 
                0, 
                0, 
                0
            ], 
            "type" : "VEC4"
        }, 
        {
            "bufferView" : 15, 
            "componentType" : 5126, 
            "count" : 702, 
            "max" : [
                0.0, 
                0.0, 
                0.0, 
                0.0
            ], 
            "min" : [
                0.0, 
                0.0, 
                0.0, 
                0.0
            ], 
            "type" : "VEC4"
        }, 
        {
            "bufferView" : 16, 
            "componentType" : 5123, 
            "count" : 702, 
            "max" : [
                0, 
                0, 
                0, 
                0
            ], 
            "min" : [
                0, 
                0, 
                0, 
                0
            ], 
            "type" : "VEC4"
        }, 
        {
            "bufferView" : 17, 
            "componentType" : 5126, 
            "count" : 702, 
            "max" : [
                0.0, 
                0.0, 
                0.0, 
                0.0
            ], 
            "min" : [
                0.0, 
                0.0, 
                0.0, 
                0.0
            ], 
            "type" : "VEC4"
        }, 
        {
            "bufferView" : 18, 
            "componentType" : 5123, 
            "count" : 702, 
            "max" : [
                0, 
                0, 
                0, 
                0
            ], 
            "min" : [
                0, 
                0, 
                0, 
                0
            ], 
            "type" : "VEC4"
        }, 
        {
            "bufferView" : 19, 
            "componentType" : 5126, 
            "count" : 702, 
            "max" : [
                0.0, 
                0.0, 
                0.0, 
                0.0
            ], 
            "min" : [
                0.0, 
                0.0, 
                0.0, 
                0.0
            ], 
            "type" : "VEC4"
        }
    ], 
    "asset" : {
        "generator" : "Khronos Blender glTF 2.0 exporter", 
        "version" : "2.0"
    }, 
    "bufferViews" : [
        {
            "buffer" : 0, 
            "byteLength" : 72, 
            "byteOffset" : 0, 
            "target" : 34963
        }, 
        {
            "buffer" : 0, 
            "byteLength" : 576, 
            "byteOffset" : 72, 
            "target" : 34962
        }, 
        {
            "buffer" : 0, 
            "byteLength" : 576, 
            "byteOffset" : 648, 
            "target" : 34962
        }, 
        {
            "buffer" : 0, 
            "byteLength" : 384, 
            "byteOffset" : 1224, 
            "target" : 34962
        }, 
        {
            "buffer" : 0, 
            "byteLength" : 384, 
            "byteOffset" : 1608, 
            "target" : 34962
        }, 
        {
            "buffer" : 0, 
            "byteLength" : 768, 
            "byteOffset" : 1992, 
            "target" : 34962
        }, 
        {
            "buffer" : 0, 
            "byteLength" : 384, 
            "byteOffset" : 2760, 
            "target" : 34962
        }, 
        {
            "buffer" : 0, 
            "byteLength" : 768, 
            "byteOffset" : 3144, 
            "target" : 34962
        }, 
        {
            "buffer" : 0, 
            "byteLength" : 384, 
            "byteOffset" : 3912, 
            "target" : 34962
        }, 
        {
            "buffer" : 0, 
            "byteLength" : 768, 
            "byteOffset" : 4296, 
            "target" : 34962
        }, 
        {
            "buffer" : 0, 
            "byteLength" : 4668, 
            "byteOffset" : 5064, 
            "target" : 34963
        }, 
        {
            "buffer" : 0, 
            "byteLength" : 8424, 
            "byteOffset" : 9732, 
            "target" : 34962
        }, 
        {
            "buffer" : 0, 
            "byteLength" : 8424, 
            "byteOffset" : 18156, 
            "target" : 34962
        }, 
        {
            "buffer" : 0, 
            "byteLength" : 5616, 
            "byteOffset" : 26580, 
            "target" : 34962
        }, 
        {
            "buffer" : 0, 
            "byteLength" : 5616, 
            "byteOffset" : 32196, 
            "target" : 34962
        }, 
        {
            "buffer" : 0, 
            "byteLength" : 11232, 
            "byteOffset" : 37812, 
            "target" : 34962
        }, 
        {
            "buffer" : 0, 
            "byteLength" : 5616, 
            "byteOffset" : 49044, 
            "target" : 34962
        }, 
        {
            "buffer" : 0, 
            "byteLength" : 11232, 
            "byteOffset" : 54660, 
            "target" : 34962
        }, 
        {
            "buffer" : 0, 
            "byteLength" : 5616, 
            "byteOffset" : 65892, 
            "target" : 34962
        }, 
        {
            "buffer" : 0, 
            "byteLength" : 11232, 
            "byteOffset" : 71508, 
            "target" : 34962
        }
    ], 
    "buffers" : [
        {
            "byteLength" : 82740, 
            "uri" : "bear.bin"
        }
    ], 
    "images" : [
        {
            "uri" : "bare_d.png"
        }
    ], 
    "materials" : [
        {
            "name" : "Material", 
            "pbrMetallicRoughness" : {
                "baseColorFactor" : [
                    0.0, 
                    0.0, 
                    0.0, 
                    1.0
                ], 
                "metallicFactor" : 0.0
            }
        }, 
        {
            "name" : "Material__47.002", 
            "pbrMetallicRoughness" : {
                "baseColorFactor" : [
                    0.6400000190734865, 
                    0.6400000190734865, 
                    0.6400000190734865, 
                    1.0
                ], 
                "baseColorTexture" : {
                    "index" : 0
                }, 
                "metallicFactor" : 0.0
            }
        }
    ], 
    "meshes" : [
        {
            "name" : "bear.001", 
            "primitives" : [
                {
                    "attributes" : {
                        "JOINTS_0" : 4, 
                        "JOINTS_1" : 6, 
                        "JOINTS_2" : 8, 
                        "NORMAL" : 2, 
                        "POSITION" : 1, 
                        "TEXCOORD_0" : 3, 
                        "WEIGHTS_0" : 5, 
                        "WEIGHTS_1" : 7, 
                        "WEIGHTS_2" : 9
                    }, 
                    "indices" : 0, 
                    "material" : 0
                }, 
                {
                    "attributes" : {
                        "JOINTS_0" : 14, 
                        "JOINTS_1" : 16, 
                        "JOINTS_2" : 18, 
                        "NORMAL" : 12, 
                        "POSITION" : 11, 
                        "TEXCOORD_0" : 13, 
                        "WEIGHTS_0" : 15, 
                        "WEIGHTS_1" : 17, 
                        "WEIGHTS_2" : 19
                    }, 
                    "indices" : 10, 
                    "material" : 1
                }
            ]
        }
    ], 
    "nodes" : [
        {
            "mesh" : 0, 
            "name" : "bear.001", 
            "rotation" : [
                0.7071068286895752, 
                0.0, 
                -0.0, 
                0.7071067094802856
            ], 
            "scale" : [
                0.0010193379130214453, 
                0.0010193379130214453, 
                0.0010193379130214453
            ], 
            "translation" : [
                -0.6701154708862305, 
                0.09954309463500977, 
                0.1912442445755005
            ]
        }
    ], 
    "samplers" : [
        {}
    ], 
    "scene" : 0, 
    "scenes" : [
        {
            "name" : "Scene", 
            "nodes" : [
                0
            ]
        }
    ], 
    "textures" : [
        {
            "sampler" : 0, 
            "source" : 0
        }
    ]
}
